<mxfile host="app.diagrams.net" agent="Mozilla/5.0 (Windows NT 10.0; Win64; x64) AppleWebKit/537.36 (KHTML, like Gecko) Chrome/127.0.0.0 Safari/537.36" version="24.7.6">
  <diagram id="R2lEEEUBdFMjLlhIrx00" name="Page-1">
    <mxGraphModel dx="2216" dy="735" grid="1" gridSize="10" guides="1" tooltips="1" connect="1" arrows="1" fold="1" page="1" pageScale="1" pageWidth="850" pageHeight="1100" math="0" shadow="0" extFonts="Permanent Marker^https://fonts.googleapis.com/css?family=Permanent+Marker">
      <root>
        <mxCell id="0" />
        <mxCell id="1" parent="0" />
        <mxCell id="fjBCl2A9YWWVZO73-bLu-17" style="edgeStyle=orthogonalEdgeStyle;rounded=0;orthogonalLoop=1;jettySize=auto;html=1;endArrow=none;endFill=0;" edge="1" parent="1" source="fjBCl2A9YWWVZO73-bLu-1" target="fjBCl2A9YWWVZO73-bLu-16">
          <mxGeometry relative="1" as="geometry" />
        </mxCell>
        <mxCell id="fjBCl2A9YWWVZO73-bLu-32" value="N" style="edgeLabel;html=1;align=center;verticalAlign=middle;resizable=0;points=[];" vertex="1" connectable="0" parent="fjBCl2A9YWWVZO73-bLu-17">
          <mxGeometry x="0.8" y="1" relative="1" as="geometry">
            <mxPoint x="20" y="-9" as="offset" />
          </mxGeometry>
        </mxCell>
        <mxCell id="fjBCl2A9YWWVZO73-bLu-38" style="edgeStyle=orthogonalEdgeStyle;rounded=0;orthogonalLoop=1;jettySize=auto;html=1;entryX=0;entryY=0.5;entryDx=0;entryDy=0;endArrow=none;endFill=0;" edge="1" parent="1" source="fjBCl2A9YWWVZO73-bLu-1" target="fjBCl2A9YWWVZO73-bLu-39">
          <mxGeometry relative="1" as="geometry">
            <mxPoint x="570" y="450" as="targetPoint" />
          </mxGeometry>
        </mxCell>
        <mxCell id="fjBCl2A9YWWVZO73-bLu-41" value="1" style="edgeLabel;html=1;align=center;verticalAlign=middle;resizable=0;points=[];" vertex="1" connectable="0" parent="fjBCl2A9YWWVZO73-bLu-38">
          <mxGeometry x="0.837" y="1" relative="1" as="geometry">
            <mxPoint x="33" y="-9" as="offset" />
          </mxGeometry>
        </mxCell>
        <mxCell id="fjBCl2A9YWWVZO73-bLu-44" style="edgeStyle=orthogonalEdgeStyle;rounded=0;orthogonalLoop=1;jettySize=auto;html=1;entryX=1;entryY=0.5;entryDx=0;entryDy=0;endArrow=none;endFill=0;" edge="1" parent="1" source="fjBCl2A9YWWVZO73-bLu-1" target="fjBCl2A9YWWVZO73-bLu-43">
          <mxGeometry relative="1" as="geometry" />
        </mxCell>
        <mxCell id="fjBCl2A9YWWVZO73-bLu-46" value="N" style="edgeLabel;html=1;align=center;verticalAlign=middle;resizable=0;points=[];" vertex="1" connectable="0" parent="fjBCl2A9YWWVZO73-bLu-44">
          <mxGeometry x="0.5377" y="-4" relative="1" as="geometry">
            <mxPoint x="-15" y="-6" as="offset" />
          </mxGeometry>
        </mxCell>
        <mxCell id="fjBCl2A9YWWVZO73-bLu-1" value="PLAYER" style="rounded=0;whiteSpace=wrap;html=1;" vertex="1" parent="1">
          <mxGeometry x="340" y="230" width="120" height="60" as="geometry" />
        </mxCell>
        <mxCell id="fjBCl2A9YWWVZO73-bLu-2" value="OBJECT" style="rounded=0;whiteSpace=wrap;html=1;" vertex="1" parent="1">
          <mxGeometry x="1030" y="230" width="120" height="60" as="geometry" />
        </mxCell>
        <mxCell id="fjBCl2A9YWWVZO73-bLu-3" value="CARDS" style="rounded=0;whiteSpace=wrap;html=1;" vertex="1" parent="1">
          <mxGeometry x="1030" y="440" width="120" height="60" as="geometry" />
        </mxCell>
        <mxCell id="fjBCl2A9YWWVZO73-bLu-5" value="SCORE" style="rounded=0;whiteSpace=wrap;html=1;" vertex="1" parent="1">
          <mxGeometry x="-60" y="230" width="120" height="60" as="geometry" />
        </mxCell>
        <mxCell id="fjBCl2A9YWWVZO73-bLu-11" style="edgeStyle=orthogonalEdgeStyle;rounded=0;orthogonalLoop=1;jettySize=auto;html=1;entryX=0.5;entryY=0;entryDx=0;entryDy=0;endArrow=none;endFill=0;" edge="1" parent="1" source="fjBCl2A9YWWVZO73-bLu-6" target="fjBCl2A9YWWVZO73-bLu-1">
          <mxGeometry relative="1" as="geometry">
            <Array as="points">
              <mxPoint x="290" y="190" />
              <mxPoint x="400" y="190" />
            </Array>
          </mxGeometry>
        </mxCell>
        <mxCell id="fjBCl2A9YWWVZO73-bLu-6" value="ID" style="ellipse;whiteSpace=wrap;html=1;fontStyle=4" vertex="1" parent="1">
          <mxGeometry x="245" y="110" width="90" height="50" as="geometry" />
        </mxCell>
        <mxCell id="fjBCl2A9YWWVZO73-bLu-12" style="edgeStyle=orthogonalEdgeStyle;rounded=0;orthogonalLoop=1;jettySize=auto;html=1;entryX=0.5;entryY=0;entryDx=0;entryDy=0;endArrow=none;endFill=0;" edge="1" parent="1" source="fjBCl2A9YWWVZO73-bLu-7" target="fjBCl2A9YWWVZO73-bLu-1">
          <mxGeometry relative="1" as="geometry" />
        </mxCell>
        <mxCell id="fjBCl2A9YWWVZO73-bLu-7" value="ID_SCORE" style="ellipse;whiteSpace=wrap;html=1;" vertex="1" parent="1">
          <mxGeometry x="355" y="110" width="90" height="50" as="geometry" />
        </mxCell>
        <mxCell id="fjBCl2A9YWWVZO73-bLu-13" style="edgeStyle=orthogonalEdgeStyle;rounded=0;orthogonalLoop=1;jettySize=auto;html=1;endArrow=none;endFill=0;" edge="1" parent="1" source="fjBCl2A9YWWVZO73-bLu-8" target="fjBCl2A9YWWVZO73-bLu-1">
          <mxGeometry relative="1" as="geometry">
            <Array as="points">
              <mxPoint x="510" y="190" />
              <mxPoint x="400" y="190" />
            </Array>
          </mxGeometry>
        </mxCell>
        <mxCell id="fjBCl2A9YWWVZO73-bLu-8" value="NAME" style="ellipse;whiteSpace=wrap;html=1;" vertex="1" parent="1">
          <mxGeometry x="465" y="110" width="90" height="50" as="geometry" />
        </mxCell>
        <mxCell id="fjBCl2A9YWWVZO73-bLu-14" style="edgeStyle=orthogonalEdgeStyle;rounded=0;orthogonalLoop=1;jettySize=auto;html=1;entryX=0.5;entryY=1;entryDx=0;entryDy=0;endArrow=none;endFill=0;" edge="1" parent="1" source="fjBCl2A9YWWVZO73-bLu-9" target="fjBCl2A9YWWVZO73-bLu-1">
          <mxGeometry relative="1" as="geometry" />
        </mxCell>
        <mxCell id="fjBCl2A9YWWVZO73-bLu-9" value="PASSWORD" style="ellipse;whiteSpace=wrap;html=1;" vertex="1" parent="1">
          <mxGeometry x="280" y="330" width="90" height="50" as="geometry" />
        </mxCell>
        <mxCell id="fjBCl2A9YWWVZO73-bLu-15" style="edgeStyle=orthogonalEdgeStyle;rounded=0;orthogonalLoop=1;jettySize=auto;html=1;entryX=0.5;entryY=1;entryDx=0;entryDy=0;endArrow=none;endFill=0;" edge="1" parent="1" source="fjBCl2A9YWWVZO73-bLu-10" target="fjBCl2A9YWWVZO73-bLu-1">
          <mxGeometry relative="1" as="geometry" />
        </mxCell>
        <mxCell id="fjBCl2A9YWWVZO73-bLu-10" value="BOT" style="ellipse;whiteSpace=wrap;html=1;" vertex="1" parent="1">
          <mxGeometry x="450" y="330" width="90" height="50" as="geometry" />
        </mxCell>
        <mxCell id="fjBCl2A9YWWVZO73-bLu-18" style="edgeStyle=orthogonalEdgeStyle;rounded=0;orthogonalLoop=1;jettySize=auto;html=1;entryX=0;entryY=0.5;entryDx=0;entryDy=0;endArrow=none;endFill=0;" edge="1" parent="1" source="fjBCl2A9YWWVZO73-bLu-16" target="fjBCl2A9YWWVZO73-bLu-2">
          <mxGeometry relative="1" as="geometry" />
        </mxCell>
        <mxCell id="fjBCl2A9YWWVZO73-bLu-16" value="INVENTORY" style="rhombus;whiteSpace=wrap;html=1;" vertex="1" parent="1">
          <mxGeometry x="710" y="220" width="80" height="80" as="geometry" />
        </mxCell>
        <mxCell id="fjBCl2A9YWWVZO73-bLu-23" style="edgeStyle=orthogonalEdgeStyle;rounded=0;orthogonalLoop=1;jettySize=auto;html=1;entryX=0.5;entryY=1;entryDx=0;entryDy=0;endArrow=none;endFill=0;" edge="1" parent="1" source="fjBCl2A9YWWVZO73-bLu-19" target="fjBCl2A9YWWVZO73-bLu-16">
          <mxGeometry relative="1" as="geometry">
            <Array as="points">
              <mxPoint x="665" y="320" />
              <mxPoint x="750" y="320" />
            </Array>
          </mxGeometry>
        </mxCell>
        <mxCell id="fjBCl2A9YWWVZO73-bLu-19" value="ID_PLAYER" style="ellipse;whiteSpace=wrap;html=1;" vertex="1" parent="1">
          <mxGeometry x="620" y="330" width="90" height="50" as="geometry" />
        </mxCell>
        <mxCell id="fjBCl2A9YWWVZO73-bLu-22" style="edgeStyle=orthogonalEdgeStyle;rounded=0;orthogonalLoop=1;jettySize=auto;html=1;endArrow=none;endFill=0;" edge="1" parent="1" source="fjBCl2A9YWWVZO73-bLu-21" target="fjBCl2A9YWWVZO73-bLu-16">
          <mxGeometry relative="1" as="geometry" />
        </mxCell>
        <mxCell id="fjBCl2A9YWWVZO73-bLu-21" value="ID" style="ellipse;whiteSpace=wrap;html=1;fontStyle=4" vertex="1" parent="1">
          <mxGeometry x="705" y="110" width="90" height="50" as="geometry" />
        </mxCell>
        <mxCell id="fjBCl2A9YWWVZO73-bLu-25" style="edgeStyle=orthogonalEdgeStyle;rounded=0;orthogonalLoop=1;jettySize=auto;html=1;entryX=0.5;entryY=1;entryDx=0;entryDy=0;endArrow=none;endFill=0;" edge="1" parent="1" source="fjBCl2A9YWWVZO73-bLu-24" target="fjBCl2A9YWWVZO73-bLu-16">
          <mxGeometry relative="1" as="geometry">
            <Array as="points">
              <mxPoint x="805" y="320" />
              <mxPoint x="750" y="320" />
            </Array>
          </mxGeometry>
        </mxCell>
        <mxCell id="fjBCl2A9YWWVZO73-bLu-24" value="ID_OBJECT" style="ellipse;whiteSpace=wrap;html=1;" vertex="1" parent="1">
          <mxGeometry x="760" y="330" width="90" height="50" as="geometry" />
        </mxCell>
        <mxCell id="fjBCl2A9YWWVZO73-bLu-27" style="edgeStyle=orthogonalEdgeStyle;rounded=0;orthogonalLoop=1;jettySize=auto;html=1;endArrow=none;endFill=0;" edge="1" parent="1" source="fjBCl2A9YWWVZO73-bLu-26" target="fjBCl2A9YWWVZO73-bLu-2">
          <mxGeometry relative="1" as="geometry">
            <Array as="points">
              <mxPoint x="975" y="190" />
              <mxPoint x="1090" y="190" />
            </Array>
          </mxGeometry>
        </mxCell>
        <mxCell id="fjBCl2A9YWWVZO73-bLu-26" value="ID" style="ellipse;whiteSpace=wrap;html=1;fontStyle=4" vertex="1" parent="1">
          <mxGeometry x="930" y="110" width="90" height="50" as="geometry" />
        </mxCell>
        <mxCell id="fjBCl2A9YWWVZO73-bLu-31" style="edgeStyle=orthogonalEdgeStyle;rounded=0;orthogonalLoop=1;jettySize=auto;html=1;entryX=0.5;entryY=0;entryDx=0;entryDy=0;endArrow=none;endFill=0;" edge="1" parent="1" source="fjBCl2A9YWWVZO73-bLu-28" target="fjBCl2A9YWWVZO73-bLu-2">
          <mxGeometry relative="1" as="geometry" />
        </mxCell>
        <mxCell id="fjBCl2A9YWWVZO73-bLu-28" value="NAME" style="ellipse;whiteSpace=wrap;html=1;" vertex="1" parent="1">
          <mxGeometry x="1045" y="110" width="90" height="50" as="geometry" />
        </mxCell>
        <mxCell id="fjBCl2A9YWWVZO73-bLu-30" style="edgeStyle=orthogonalEdgeStyle;rounded=0;orthogonalLoop=1;jettySize=auto;html=1;entryX=0.5;entryY=0;entryDx=0;entryDy=0;endArrow=none;endFill=0;" edge="1" parent="1" source="fjBCl2A9YWWVZO73-bLu-29" target="fjBCl2A9YWWVZO73-bLu-2">
          <mxGeometry relative="1" as="geometry">
            <Array as="points">
              <mxPoint x="1215" y="190" />
              <mxPoint x="1090" y="190" />
            </Array>
          </mxGeometry>
        </mxCell>
        <mxCell id="fjBCl2A9YWWVZO73-bLu-29" value="DESCRIPTION" style="ellipse;whiteSpace=wrap;html=1;" vertex="1" parent="1">
          <mxGeometry x="1170" y="110" width="90" height="50" as="geometry" />
        </mxCell>
        <mxCell id="fjBCl2A9YWWVZO73-bLu-33" value="M" style="edgeLabel;html=1;align=center;verticalAlign=middle;resizable=0;points=[];" vertex="1" connectable="0" parent="1">
          <mxGeometry x="795" y="250" as="geometry" />
        </mxCell>
        <mxCell id="fjBCl2A9YWWVZO73-bLu-34" value="ID" style="ellipse;whiteSpace=wrap;html=1;fontStyle=4" vertex="1" parent="1">
          <mxGeometry x="970" y="350" width="90" height="50" as="geometry" />
        </mxCell>
        <mxCell id="fjBCl2A9YWWVZO73-bLu-35" style="edgeStyle=orthogonalEdgeStyle;rounded=0;orthogonalLoop=1;jettySize=auto;html=1;endArrow=none;endFill=0;" edge="1" parent="1" source="fjBCl2A9YWWVZO73-bLu-34">
          <mxGeometry relative="1" as="geometry">
            <mxPoint x="1085" y="440" as="targetPoint" />
            <Array as="points">
              <mxPoint x="1015" y="420" />
              <mxPoint x="1086" y="420" />
              <mxPoint x="1086" y="440" />
            </Array>
          </mxGeometry>
        </mxCell>
        <mxCell id="fjBCl2A9YWWVZO73-bLu-36" value="CARD" style="ellipse;whiteSpace=wrap;html=1;fontStyle=0" vertex="1" parent="1">
          <mxGeometry x="1130" y="350" width="90" height="50" as="geometry" />
        </mxCell>
        <mxCell id="fjBCl2A9YWWVZO73-bLu-37" style="edgeStyle=orthogonalEdgeStyle;rounded=0;orthogonalLoop=1;jettySize=auto;html=1;entryX=0.458;entryY=-0.008;entryDx=0;entryDy=0;entryPerimeter=0;endArrow=none;endFill=0;" edge="1" parent="1" source="fjBCl2A9YWWVZO73-bLu-36" target="fjBCl2A9YWWVZO73-bLu-3">
          <mxGeometry relative="1" as="geometry" />
        </mxCell>
        <mxCell id="fjBCl2A9YWWVZO73-bLu-40" style="edgeStyle=orthogonalEdgeStyle;rounded=0;orthogonalLoop=1;jettySize=auto;html=1;entryX=0;entryY=0.5;entryDx=0;entryDy=0;endArrow=none;endFill=0;" edge="1" parent="1" source="fjBCl2A9YWWVZO73-bLu-39" target="fjBCl2A9YWWVZO73-bLu-3">
          <mxGeometry relative="1" as="geometry" />
        </mxCell>
        <mxCell id="fjBCl2A9YWWVZO73-bLu-39" value="DRAW" style="rhombus;whiteSpace=wrap;html=1;" vertex="1" parent="1">
          <mxGeometry x="710" y="430" width="80" height="80" as="geometry" />
        </mxCell>
        <mxCell id="fjBCl2A9YWWVZO73-bLu-42" value="N" style="edgeLabel;html=1;align=center;verticalAlign=middle;resizable=0;points=[];" vertex="1" connectable="0" parent="1">
          <mxGeometry x="690" y="474" as="geometry">
            <mxPoint x="105" y="-17" as="offset" />
          </mxGeometry>
        </mxCell>
        <mxCell id="fjBCl2A9YWWVZO73-bLu-45" style="edgeStyle=orthogonalEdgeStyle;rounded=0;orthogonalLoop=1;jettySize=auto;html=1;entryX=1;entryY=0.5;entryDx=0;entryDy=0;endArrow=none;endFill=0;" edge="1" parent="1" source="fjBCl2A9YWWVZO73-bLu-43" target="fjBCl2A9YWWVZO73-bLu-5">
          <mxGeometry relative="1" as="geometry" />
        </mxCell>
        <mxCell id="fjBCl2A9YWWVZO73-bLu-43" value="GET" style="rhombus;whiteSpace=wrap;html=1;" vertex="1" parent="1">
          <mxGeometry x="150" y="220" width="80" height="80" as="geometry" />
        </mxCell>
        <mxCell id="fjBCl2A9YWWVZO73-bLu-47" value="1" style="edgeLabel;html=1;align=center;verticalAlign=middle;resizable=0;points=[];" vertex="1" connectable="0" parent="1">
          <mxGeometry x="252.2380952380954" y="257" as="geometry">
            <mxPoint x="-116" y="-8" as="offset" />
          </mxGeometry>
        </mxCell>
        <mxCell id="fjBCl2A9YWWVZO73-bLu-54" style="edgeStyle=orthogonalEdgeStyle;rounded=0;orthogonalLoop=1;jettySize=auto;html=1;entryX=0.5;entryY=0;entryDx=0;entryDy=0;endArrow=none;endFill=0;" edge="1" parent="1" source="fjBCl2A9YWWVZO73-bLu-48" target="fjBCl2A9YWWVZO73-bLu-5">
          <mxGeometry relative="1" as="geometry">
            <Array as="points">
              <mxPoint x="-115" y="200" />
              <mxPoint y="200" />
            </Array>
          </mxGeometry>
        </mxCell>
        <mxCell id="fjBCl2A9YWWVZO73-bLu-48" value="ID_PLAYER" style="ellipse;whiteSpace=wrap;html=1;fontStyle=4" vertex="1" parent="1">
          <mxGeometry x="-160" y="130" width="90" height="50" as="geometry" />
        </mxCell>
        <mxCell id="fjBCl2A9YWWVZO73-bLu-51" style="edgeStyle=orthogonalEdgeStyle;rounded=0;orthogonalLoop=1;jettySize=auto;html=1;entryX=0.5;entryY=0;entryDx=0;entryDy=0;endArrow=none;endFill=0;" edge="1" parent="1" source="fjBCl2A9YWWVZO73-bLu-49" target="fjBCl2A9YWWVZO73-bLu-5">
          <mxGeometry relative="1" as="geometry" />
        </mxCell>
        <mxCell id="fjBCl2A9YWWVZO73-bLu-49" value="NAME_PLAYER" style="ellipse;whiteSpace=wrap;html=1;" vertex="1" parent="1">
          <mxGeometry x="-47.5" y="130" width="95" height="50" as="geometry" />
        </mxCell>
        <mxCell id="fjBCl2A9YWWVZO73-bLu-53" style="edgeStyle=orthogonalEdgeStyle;rounded=0;orthogonalLoop=1;jettySize=auto;html=1;endArrow=none;endFill=0;" edge="1" parent="1" source="fjBCl2A9YWWVZO73-bLu-52">
          <mxGeometry relative="1" as="geometry">
            <mxPoint y="230" as="targetPoint" />
            <Array as="points">
              <mxPoint x="118" y="200" />
              <mxPoint y="200" />
            </Array>
          </mxGeometry>
        </mxCell>
        <mxCell id="fjBCl2A9YWWVZO73-bLu-52" value="ROUNDS" style="ellipse;whiteSpace=wrap;html=1;" vertex="1" parent="1">
          <mxGeometry x="70" y="130" width="95" height="50" as="geometry" />
        </mxCell>
      </root>
    </mxGraphModel>
  </diagram>
</mxfile>
